<svg width="25" height="25" viewBox="0 0 25 25" fill="none" xmlns="http://www.w3.org/2000/svg">
<path d="M24.433 7.52494C24.3754 6.24712 24.169 5.37282 23.8761 4.60901C23.5689 3.82118 23.1608 3.14864 22.4934 2.48571C21.8261 1.82278 21.1588 1.40485 20.3714 1.1022C19.6081 0.804366 18.7343 0.602604 17.4572 0.544958C16.1754 0.487312 15.7673 0.4729 12.5122 0.4729C9.2524 0.4729 8.84431 0.487312 7.56726 0.544958C6.2902 0.602604 5.41643 0.809169 4.65308 1.1022C3.86092 1.40965 3.18878 1.81798 2.52625 2.48571C1.86372 3.15345 1.44603 3.82118 1.14357 4.60901C0.850716 5.37282 0.644274 6.24712 0.586663 7.52494C0.529051 8.80757 0.514648 9.2159 0.514648 12.4729C0.514648 15.7347 0.529051 16.143 0.586663 17.4209C0.644274 18.6987 0.850716 19.573 1.14357 20.3368C1.45084 21.1246 1.85892 21.7972 2.52625 22.4601C3.18878 23.1278 3.86092 23.541 4.64827 23.8436C5.41163 24.1414 6.2854 24.3432 7.56246 24.4008C8.84431 24.4585 9.2524 24.4729 12.5074 24.4729C15.7673 24.4729 16.1754 24.4585 17.4524 24.4008C18.7295 24.3432 19.6033 24.1366 20.3666 23.8436C21.154 23.5362 21.8261 23.1278 22.4886 22.4601C23.1512 21.7924 23.5689 21.1246 23.8713 20.3368C24.169 19.573 24.3706 18.6987 24.4282 17.4209C24.4858 16.1382 24.5002 15.7299 24.5002 12.4729C24.5002 9.2159 24.4906 8.80276 24.433 7.52494ZM22.2774 17.3248C22.2246 18.4969 22.0278 19.1358 21.8645 19.5538C21.6485 20.111 21.3844 20.5145 20.9619 20.9373C20.5395 21.36 20.141 21.6146 19.5793 21.8404C19.1568 22.0037 18.5182 22.2007 17.3516 22.2535C16.089 22.3112 15.7097 22.3256 12.5026 22.3256C9.2956 22.3256 8.91633 22.3112 7.65368 22.2535C6.48224 22.2007 5.84371 22.0037 5.42603 21.8404C4.86912 21.6242 4.46584 21.36 4.04335 20.9373C3.62087 20.5145 3.36642 20.1158 3.14077 19.5538C2.97754 19.131 2.7807 18.4921 2.72789 17.3248C2.67028 16.0614 2.65588 15.6819 2.65588 12.4729C2.65588 9.26393 2.67028 8.88443 2.72789 7.62102C2.7807 6.44888 2.97754 5.80997 3.14077 5.39204C3.35682 4.83479 3.62087 4.43127 4.04335 4.00853C4.46584 3.58579 4.86432 3.33119 5.42603 3.10541C5.84852 2.94208 6.48704 2.74512 7.65368 2.69228C8.91633 2.63463 9.2956 2.62022 12.5026 2.62022C15.7097 2.62022 16.089 2.63463 17.3516 2.69228C18.5231 2.74512 19.1616 2.94208 19.5793 3.10541C20.1362 3.32158 20.5395 3.58579 20.9619 4.00853C21.3844 4.43127 21.6389 4.82999 21.8645 5.39204C22.0278 5.81477 22.2246 6.45369 22.2774 7.62102C22.335 8.88443 22.3494 9.26393 22.3494 12.4729C22.3494 15.6819 22.3302 16.0614 22.2774 17.3248Z" fill="url(#paint0_linear_41_36)"/>
<path d="M12.5028 6.30469C9.09413 6.30469 6.33838 9.0669 6.33838 12.4728C6.33838 15.8836 9.09893 18.641 12.5028 18.641C15.9067 18.641 18.6672 15.8739 18.6672 12.4728C18.6672 9.06209 15.9115 6.30469 12.5028 6.30469ZM12.5028 16.4744C10.2944 16.4744 8.50361 14.6826 8.50361 12.4728C8.50361 10.2631 10.2944 8.47122 12.5028 8.47122C14.7113 8.47122 16.502 10.2631 16.502 12.4728C16.502 14.6826 14.7113 16.4744 12.5028 16.4744Z" fill="url(#paint1_linear_41_36)"/>
<path d="M18.9071 7.50584C19.7025 7.50584 20.3474 6.86062 20.3474 6.06469C20.3474 5.26876 19.7025 4.62354 18.9071 4.62354C18.1116 4.62354 17.4668 5.26876 17.4668 6.06469C17.4668 6.86062 18.1116 7.50584 18.9071 7.50584Z" fill="#BC30A0"/>
<path d="M0.5 12.4729C0.5 15.7347 0.514403 16.143 0.572014 17.4209C0.629626 18.6987 0.836067 19.573 1.12893 20.3368C1.43619 21.1246 1.84427 21.7972 2.5116 22.4601C3.17413 23.123 3.84627 23.541 4.63363 23.8436C5.39698 24.1414 6.27075 24.3432 7.54781 24.4008C8.82967 24.4585 9.23775 24.4729 12.4928 24.4729C15.7527 24.4729 16.1607 24.4585 17.4378 24.4008C18.7148 24.3432 19.5886 24.1366 20.352 23.8436C21.1393 23.5362 21.8115 23.1278 22.474 22.4601C23.1365 21.7972 23.5542 21.1246 23.8567 20.3368C24.1543 19.573 24.356 18.6987 24.4136 17.4209C24.4712 16.1382 24.4856 15.7299 24.4856 12.4729C24.4856 9.21109 24.4712 8.80276 24.4136 7.52494C24.356 6.24712 24.1495 5.37282 23.8567 4.60901C23.5494 3.82118 23.1413 3.14864 22.474 2.48571C21.8163 1.81798 21.1441 1.40485 20.3568 1.1022C19.5934 0.804366 18.7196 0.602604 17.4426 0.544958C16.1607 0.487312 15.7527 0.4729 12.4976 0.4729C9.23775 0.4729 8.82967 0.487312 7.55261 0.544958C6.27555 0.602604 5.40178 0.809169 4.63843 1.1022C3.85107 1.40965 3.17894 1.81798 2.5164 2.48571C1.85387 3.15345 1.43619 3.82118 1.13373 4.60901C0.836067 5.37282 0.629626 6.24712 0.572014 7.52494C0.514403 8.80276 0.5 9.21109 0.5 12.4729ZM2.66523 12.4729C2.66523 9.26874 2.67964 8.88443 2.73725 7.62102C2.79006 6.44888 2.9869 5.80997 3.15013 5.39204C3.36617 4.83479 3.63023 4.43127 4.05271 4.00853C4.47519 3.58579 4.87367 3.33119 5.43539 3.10541C5.85787 2.94208 6.4964 2.74512 7.66303 2.69228C8.92568 2.63463 9.30496 2.62022 12.512 2.62022C15.719 2.62022 16.0983 2.63463 17.361 2.69228C18.5324 2.74512 19.1709 2.94208 19.5886 3.10541C20.1455 3.32158 20.5488 3.58579 20.9713 4.00853C21.3938 4.43127 21.6482 4.82999 21.8739 5.39204C22.0371 5.81477 22.2339 6.45369 22.2868 7.62102C22.3444 8.88443 22.3588 9.26393 22.3588 12.4729C22.3588 15.6819 22.3444 16.0614 22.2868 17.3248C22.2339 18.4969 22.0371 19.1358 21.8739 19.5538C21.6578 20.111 21.3938 20.5145 20.9713 20.9373C20.5488 21.36 20.1503 21.6146 19.5886 21.8404C19.1661 22.0037 18.5276 22.2007 17.361 22.2535C16.0983 22.3112 15.719 22.3256 12.512 22.3256C9.30496 22.3256 8.92568 22.3112 7.66303 22.2535C6.4916 22.2007 5.85307 22.0037 5.43539 21.8404C4.87848 21.6242 4.47519 21.36 4.05271 20.9373C3.63023 20.5145 3.37578 20.1158 3.15013 19.5538C2.9869 19.131 2.79006 18.4921 2.73725 17.3248C2.67483 16.0614 2.66523 15.6771 2.66523 12.4729Z" fill="url(#paint2_linear_41_36)"/>
<defs>
<linearGradient id="paint0_linear_41_36" x1="20.7957" y1="2.3081" x2="3.43328" y2="23.5805" gradientUnits="userSpaceOnUse">
<stop stop-color="#AE3DAE"/>
<stop offset="0.0468721" stop-color="#B23BA6"/>
<stop offset="0.1216" stop-color="#BD368E"/>
<stop offset="0.2148" stop-color="#CE2E69"/>
<stop offset="0.3216" stop-color="#E62335"/>
<stop offset="0.418" stop-color="#FF1800"/>
</linearGradient>
<linearGradient id="paint1_linear_41_36" x1="15.4427" y1="7.52568" x2="9.13529" y2="18.1242" gradientUnits="userSpaceOnUse">
<stop stop-color="#E12F6A"/>
<stop offset="0.1705" stop-color="#EA3751"/>
<stop offset="0.3563" stop-color="#F13D3E"/>
<stop offset="0.5467" stop-color="#F64133"/>
<stop offset="0.7469" stop-color="#F7422F"/>
<stop offset="0.7946" stop-color="#F74C2F"/>
<stop offset="0.8743" stop-color="#F7652F"/>
<stop offset="0.9757" stop-color="#F78F2E"/>
<stop offset="1" stop-color="#F79A2E"/>
</linearGradient>
<linearGradient id="paint2_linear_41_36" x1="17.9381" y1="-0.515131" x2="7.31389" y2="24.8092" gradientUnits="userSpaceOnUse">
<stop offset="0.2341" stop-color="#9E35A5" stop-opacity="0"/>
<stop offset="0.4512" stop-color="#D42F7F" stop-opacity="0.5"/>
<stop offset="0.7524" stop-color="#F7772E"/>
<stop offset="0.9624" stop-color="#FEF780"/>
</linearGradient>
</defs>
</svg>
