<svg width="25" height="25" viewBox="0 0 25 25" fill="none" xmlns="http://www.w3.org/2000/svg">
<path d="M21.5571 7.65356C21.5664 7.86476 21.5664 8.06636 21.5664 8.27756C21.5756 14.6808 16.8712 22.0728 8.26793 22.0728C5.73048 22.0728 3.23933 21.3144 1.1001 19.8936C1.47053 19.9416 1.84096 19.9608 2.21139 19.9608C4.31358 19.9608 6.36021 19.2312 8.01789 17.8776C6.01756 17.8392 4.25802 16.4856 3.64681 14.508C4.35063 14.652 5.07296 14.6232 5.75826 14.4216C3.58198 13.98 2.01691 11.9928 2.00765 9.67916C2.00765 9.65996 2.00765 9.64076 2.00765 9.62156C2.65591 9.99597 3.38751 10.2072 4.12837 10.2264C2.08174 8.80556 1.44275 5.97355 2.68369 3.75594C5.0637 6.78955 8.56427 8.62316 12.3241 8.82476C11.9445 7.14476 12.4631 5.37835 13.6762 4.18795C15.5561 2.35434 18.5196 2.45034 20.2977 4.39915C21.3441 4.18795 22.3535 3.78474 23.2704 3.21834C22.9185 4.34155 22.1869 5.29195 21.2145 5.89675C22.1406 5.78155 23.0481 5.52235 23.9001 5.13835C23.2704 6.11755 22.4739 6.96235 21.5571 7.65356Z" fill="#1D9BF0"/>
</svg>
