<svg width="50" height="51" viewBox="0 0 50 51" fill="none" xmlns="http://www.w3.org/2000/svg">
<path d="M44.5642 41.0181C42.8082 39.249 38.5553 36.6671 36.4919 35.6266C33.8048 34.2732 33.5837 34.1627 31.4716 35.7317C30.0628 36.7788 29.1262 37.7142 27.4775 37.3626C25.8287 37.011 22.2459 35.0284 19.1088 31.9015C15.9716 28.7745 13.874 25.088 13.5212 23.4449C13.1685 21.8018 14.1194 20.8763 15.1567 19.4643C16.6185 17.474 16.508 17.1423 15.2584 14.4554C14.2842 12.3656 11.627 8.15277 9.85107 6.40573C7.95131 4.52932 7.95131 4.86103 6.72719 5.36967C5.73062 5.78894 4.77453 6.2986 3.87092 6.89225C2.10165 8.06763 1.1197 9.04398 0.432999 10.5113C-0.2537 11.9786 -0.562217 15.4185 2.98407 21.8604C6.53036 28.3023 9.0184 31.5963 14.1681 36.7313C19.3178 41.8662 23.2776 44.6272 29.0665 47.8736C36.2276 51.8841 38.9744 51.1023 40.4462 50.4168C41.9181 49.7312 42.8989 48.7582 44.0766 46.989C44.6718 46.087 45.1826 45.132 45.6026 44.1363C46.1123 42.9167 46.4441 42.9167 44.5642 41.0181Z" fill="#F9EAB6"/>
<path d="M46.7203 34.1002C45.1551 32.5233 41.3645 30.2221 39.5254 29.2947C37.1304 28.0884 36.9333 27.9899 35.0508 29.3883C33.7951 30.3216 32.9603 31.1554 31.4908 30.842C30.0212 30.5286 26.8279 28.7615 24.0317 25.9744C21.2356 23.1873 19.3659 19.9016 19.0515 18.4371C18.7371 16.9726 19.5847 16.1477 20.5092 14.8891C21.8122 13.1152 21.7136 12.8195 20.5999 10.4247C19.7316 8.56202 17.3632 4.80713 15.7803 3.24999C14.087 1.57753 14.087 1.87319 12.996 2.32654C12.1077 2.70024 11.2556 3.1545 10.4502 3.68362C8.87321 4.73124 7.99799 5.60147 7.38593 6.90928C6.77388 8.21708 6.49889 11.2831 9.65972 17.0248C12.8205 22.7665 15.0381 25.7024 19.6281 30.2793C24.218 34.8561 27.7475 37.317 32.9071 40.2105C39.2898 43.785 41.7381 43.0883 43.0499 42.4772C44.3617 41.8662 45.236 40.9989 46.2856 39.4221C46.8162 38.6181 47.2715 37.7669 47.6458 36.8794C48.1001 35.7923 48.3958 35.7923 46.7203 34.1002Z" stroke="#7EB693" stroke-width="3" stroke-miterlimit="10"/>
</svg>
