<svg width="15" height="15" viewBox="0 0 15 15" fill="none" xmlns="http://www.w3.org/2000/svg">
<g clip-path="url(#clip0_304_26)">
<path d="M0.5 2.34067C0.5 1.89022 0.657662 1.51859 0.972973 1.22581C1.28828 0.933013 1.6982 0.786621 2.2027 0.786621C2.6982 0.786621 3.09909 0.930756 3.40541 1.21905C3.72072 1.51635 3.87838 1.90373 3.87838 2.38122C3.87838 2.81365 3.72523 3.174 3.41892 3.4623C3.10361 3.75959 2.68919 3.90824 2.17568 3.90824H2.16216C1.66666 3.90824 1.26577 3.75959 0.959459 3.4623C0.653149 3.165 0.5 2.79112 0.5 2.34067ZM0.675676 14.165V5.13797H3.67568V14.165H0.675676ZM5.33784 14.165H8.33784V9.12446C8.33784 8.80913 8.37388 8.56589 8.44595 8.39473C8.57207 8.08842 8.76351 7.8294 9.02027 7.6177C9.27703 7.40599 9.59909 7.30013 9.98649 7.30013C10.9955 7.30013 11.5 7.98031 11.5 9.34067V14.165H14.5V8.98932C14.5 7.65598 14.1847 6.64473 13.5541 5.95554C12.9234 5.26635 12.0901 4.92176 11.0541 4.92176C9.89189 4.92176 8.98649 5.42176 8.33784 6.42176V6.44878H8.32432L8.33784 6.42176V5.13797H5.33784C5.35585 5.42626 5.36486 6.32265 5.36486 7.82716C5.36486 9.33166 5.35585 11.4443 5.33784 14.165Z" fill="white"/>
</g>
<defs>
<clipPath id="clip0_304_26">
<rect x="0.5" y="0.4729" width="14" height="14" fill="white"/>
</clipPath>
</defs>
</svg>
